G04 ================== begin FILE IDENTIFICATION RECORD ==================*
G04 Layout Name:  pcie_gen3_x4_nvme_adapter_reva_stage3_route_revk_interview_digital_complete.brd*
G04 Film Name:    L1_TOP*
G04 File Format:  Gerber RS274X*
G04 File Origin:  Cadence Allegro 25.1-S040*
G04 Origin Date:  Sun Jul 26 23:07:17 2026*
G04 *
G04 Layer:  ETCH/TOP*
G04 Layer:  BOARD GEOMETRY/DESIGN_OUTLINE*
G04 *
G04 Offset:    (0.0000 0.0000)*
G04 Mirror:    No*
G04 Mode:      Positive*
G04 Rotation:  0*
G04 FullContactRelief:  No*
G04 UndefLineWidth:     0.0000*
G04 ================== end FILE IDENTIFICATION RECORD ====================*
%FSAX46Y46*MOMM*%
%IR0*IPPOS*OFA0.00000B0.00000*MIA0B0*SFA1.00000B1.00000*%
%ADD10C,.25*%
%ADD11C,.127*%
G75*
%LPD*%
G75*
G54D10*
G01X0086000000Y0052450000D02*
X0087500000D01*
G01X0086000000Y0060950000D02*
X0087500000D01*
G54D11*
G01X0008515800Y0007246600D02*
X0007554400D01*
X0005500000Y0005192200D01*
Y0002500000D01*
G01X0007307900Y0005192200D02*
Y0005445800D01*
G01X0008500000Y0002500000D02*
Y0005192200D01*
X0009295500Y0005987700D01*
X0016147400D01*
X0016500000Y0005635100D01*
G01X0007500000Y0002500000D02*
Y0005192200D01*
X0007307900D01*
G01X0006500000Y0002500000D02*
Y0005192200D01*
X0007307900D01*
G01X0014500000D02*
Y0005480000D01*
G01X0015990600Y0005441600D02*
X0015500000Y0004951000D01*
Y0002500000D01*
G01X0017737300Y0005659800D02*
X0017500000Y0005422500D01*
Y0002500000D01*
G01X0020025500Y0006228500D02*
X0017094600D01*
X0016501200Y0005635100D01*
X0016500000D01*
G01Y0002500000D02*
Y0005635100D01*
G01X0014500000Y0002500000D02*
Y0005192200D01*
G01D02*
X0013500000D01*
Y0002500000D01*
G01X0023032000Y0006057600D02*
X0023531500Y0006557200D01*
G01X0019527300Y0005702200D02*
X0019017300Y0005192200D01*
X0018500000D01*
Y0002500000D01*
G01X0022513300Y0005693200D02*
X0021500000Y0004679900D01*
Y0002500000D01*
G01X0021744100Y0005690200D02*
X0021246100Y0005192200D01*
X0020500000D01*
Y0002500000D01*
G01X0022500000D02*
Y0005192200D01*
X0023032000D01*
G01Y0006057600D02*
X0022861100Y0006228500D01*
X0021029500D01*
X0020770800Y0006487200D01*
X0020359100D01*
X0020100400Y0006228500D01*
X0020025500D01*
G01D02*
Y0005459300D01*
X0019758400Y0005192200D01*
X0019500000D01*
Y0002500000D01*
G01X0024500000D02*
Y0005192200D01*
X0023032000D01*
G01D02*
Y0006057600D01*
G01X0026757300Y0005637700D02*
X0026500000Y0005380400D01*
Y0002500000D01*
G01X0025933800Y0005590100D02*
X0025535900Y0005192200D01*
X0025500000D01*
Y0002500000D01*
G01X0027500000Y0005192200D02*
Y0005671000D01*
X0027431400Y0005739600D01*
G01X0027500000Y0002500000D02*
Y0005192200D01*
G01D02*
X0028500000D01*
Y0002500000D01*
G01X0023531500Y0006557200D02*
X0026613800D01*
X0027431400Y0005739600D01*
G01X0033697000Y0005955800D02*
Y0006298100D01*
X0031032700Y0008962400D01*
X0030654200D01*
X0027431400Y0005739600D01*
G01X0030578600Y0005702000D02*
X0030068800Y0005192200D01*
X0029500000D01*
Y0002500000D01*
G01X0035273600Y0005433800D02*
X0034500000Y0004660200D01*
Y0002500000D01*
G01X0034252800Y0005434600D02*
X0034010400Y0005192200D01*
X0033500000D01*
Y0002500000D01*
G01X0031500000D02*
Y0005192200D01*
X0032500000D01*
G01Y0002500000D02*
Y0005192200D01*
G01X0033697000Y0005955800D02*
X0035522600D01*
X0035838500Y0005639900D01*
Y0002838500D01*
X0035500000Y0002500000D01*
G01X0032500000Y0005192200D02*
X0032933400D01*
X0033697000Y0005955800D01*
G01X0030854200Y0008421500D02*
X0031075600Y0008200100D01*
Y0005462400D01*
X0030805400Y0005192200D01*
X0030500000D01*
Y0002500000D01*
G01X0051500000Y0015000000D02*
X0050807800D01*
Y0017491000D01*
X0042481900Y0025816900D01*
X0036500300D01*
X0035317200Y0027000000D01*
X0033750000D01*
G01X0032182800Y0029500000D02*
Y0027500000D01*
G01X0033750000D02*
X0032182800D01*
G01D02*
Y0027000000D01*
X0033750000D01*
G01X0031427800Y0042700000D02*
Y0031755000D01*
X0032182800Y0031000000D01*
G01D02*
X0033750000D01*
G01X0032182800Y0030500000D02*
Y0031000000D01*
G01Y0030000000D02*
Y0030500000D01*
G01D02*
X0033750000D01*
G01Y0030000000D02*
X0032182800D01*
G01D02*
Y0029500000D01*
G01D02*
X0033750000D01*
G01X0031933200Y0035178100D02*
X0032182800Y0035427700D01*
Y0039500000D01*
X0033750000D01*
G01Y0040000000D02*
X0031928200D01*
G01X0035560000Y0039513200D02*
X0035317200Y0039270400D01*
Y0039000000D01*
X0033750000D01*
G01X0032182800Y0044000000D02*
X0031427800Y0043245000D01*
Y0042700000D01*
G01X0032182800Y0044500000D02*
Y0045000000D01*
X0033750000D01*
G01Y0044500000D02*
X0032182800D01*
G01Y0044000000D02*
X0033750000D01*
G01X0032182800Y0044500000D02*
Y0044000000D01*
G01X0042384100Y0026424200D02*
X0040143000D01*
X0039817200Y0026750000D01*
X0038250000D01*
G01X0043203600Y0027750000D02*
X0038250000D01*
G01X0042640700Y0028250000D02*
X0038250000D01*
G01X0036682800Y0030250000D02*
Y0028750000D01*
G01X0038250000D02*
X0036682800D01*
G01D02*
Y0027250000D01*
G01X0038250000Y0026750000D02*
X0036682800D01*
Y0027250000D01*
G01D02*
X0038250000D01*
G01X0040060100Y0033334700D02*
X0039817200Y0033577600D01*
Y0033750000D01*
X0038250000D01*
G01X0040063500Y0034250000D02*
X0038250000D01*
G01X0040068300Y0030750000D02*
X0038250000D01*
G01X0041611500Y0031250000D02*
X0038250000D01*
G01X0041098400Y0032250000D02*
X0038250000D01*
G01X0040524300Y0032750000D02*
X0038250000D01*
G01X0040067200Y0029250000D02*
X0038250000D01*
G01X0042111500Y0029750000D02*
X0038250000D01*
G01X0036682800Y0034750000D02*
Y0033250000D01*
G01X0038250000D02*
X0036682800D01*
G01D02*
Y0031750000D01*
G01X0038250000D02*
X0036682800D01*
G01D02*
Y0030250000D01*
G01X0038250000D02*
X0036682800D01*
G01X0040079400Y0039500200D02*
X0039829600Y0039750000D01*
X0038250000D01*
G01X0040076000Y0040250000D02*
X0038250000D01*
G01X0040231600Y0036505600D02*
X0039987200Y0036750000D01*
X0038250000D01*
G01X0040063700Y0037250000D02*
X0038250000D01*
G01X0040079100Y0038000000D02*
X0039829100Y0038250000D01*
X0038250000D01*
G01X0040061900Y0038750000D02*
X0038250000D01*
G01X0040150300Y0035000000D02*
X0039900300Y0035250000D01*
X0038250000D01*
G01X0040194000Y0035750000D02*
X0038250000D01*
G01X0036682800Y0040750000D02*
Y0039250000D01*
G01D02*
Y0037750000D01*
X0036684300D01*
G01X0038250000Y0039250000D02*
X0036682800D01*
G01X0038250000Y0037750000D02*
X0036684300D01*
G01D02*
X0036682800Y0037748500D01*
Y0036250000D01*
G01X0038250000D02*
X0036682800D01*
G01D02*
Y0034750000D01*
G01X0038250000D02*
X0036682800D01*
G01Y0044750000D02*
Y0045250000D01*
X0038250000D01*
G01Y0044750000D02*
X0036682800D01*
G01Y0044250000D02*
Y0040750000D01*
G01Y0044750000D02*
Y0044250000D01*
G01D02*
X0038250000D01*
G01X0036682800Y0040750000D02*
X0038250000D01*
G01Y0045250000D02*
X0041608200D01*
X0048007800Y0051649600D01*
Y0052000000D01*
X0048475000D01*
G01X0049992200Y0009649600D02*
X0049725400Y0009382800D01*
X0046164300D01*
X0045917200Y0009629900D01*
Y0010000000D01*
X0045325000D01*
G01X0046000000Y0020000000D02*
Y0018807800D01*
X0047521300Y0017286500D01*
Y0015000000D01*
G01X0042200000Y0056000000D02*
X0040664100D01*
G01X0042200000D02*
Y0059507800D01*
X0043000000Y0060307800D01*
Y0061500000D01*
G01X0042200000Y0056000000D02*
X0043992200D01*
X0047525000Y0052467200D01*
Y0052465700D01*
G01X0046325000Y0062000000D02*
X0044692200D01*
X0044192200Y0061500000D01*
X0043000000D01*
G01X0051311100Y0009544900D02*
X0050942200Y0009913800D01*
Y0010000000D01*
X0050475000D01*
G01X0049525000D02*
X0048808600D01*
G01X0050475000Y0013095000D02*
Y0010000000D01*
G01X0047521300Y0015000000D02*
Y0010254100D01*
X0047267200Y0010000000D01*
X0046675000D01*
G01X0049992200Y0009649600D02*
Y0010000000D01*
X0049525000D01*
G01X0060325000Y0009000000D02*
X0050641800D01*
X0049992200Y0009649600D01*
G01X0049315000Y0013181300D02*
X0048500000Y0013996300D01*
Y0014000000D01*
G01X0049456400Y0014353100D02*
X0049339100D01*
X0049192200Y0014500000D01*
X0048500000D01*
G01X0051500000Y0015500000D02*
X0052444000D01*
G01X0049190700D02*
X0049192200D01*
Y0016000000D01*
X0048500000D01*
G01Y0015500000D02*
X0049190700D01*
G01D02*
X0050190700Y0014500000D01*
X0050475000D01*
G01X0051500000D02*
X0050475000D01*
G01D02*
Y0013095000D01*
G01X0058500000D02*
X0050475000D01*
G01X0048500000Y0015000000D02*
X0047521300D01*
G01X0051500000Y0014000000D02*
X0052625000D01*
X0053325000Y0014700000D01*
Y0021000000D01*
G01X0052628800Y0014708300D02*
X0052337100Y0015000000D01*
X0051500000D01*
G01X0052433800Y0016241600D02*
X0052192200Y0016000000D01*
X0051500000D01*
G01X0049872200Y0055830800D02*
X0049641400Y0055600000D01*
X0049000000D01*
G01X0051846500Y0055200000D02*
X0051000000D01*
G01X0051411700Y0052103700D02*
X0051554100D01*
X0051657800Y0052000000D01*
X0052550000D01*
G01X0052276600Y0056024600D02*
X0051966200D01*
X0051541600Y0055600000D01*
X0051000000D01*
G01X0049000000Y0056800000D02*
X0048407800D01*
Y0058051000D01*
X0048538400Y0058181600D01*
Y0058593400D01*
X0048473100Y0058658700D01*
Y0062000000D01*
G01X0051000000Y0056400000D02*
X0051949200D01*
X0052070800Y0056521600D01*
X0053183500D01*
X0053261400Y0056443700D01*
X0053885900D01*
X0058825000Y0061382800D01*
Y0062000000D01*
G01X0049325000Y0060000000D02*
Y0058616700D01*
X0050407800Y0057533900D01*
Y0056800000D01*
X0051000000D01*
G01X0049000000Y0056400000D02*
X0049592200D01*
Y0057901200D01*
X0048732800Y0058760600D01*
Y0060520200D01*
X0048881200Y0060668600D01*
X0049791600D01*
X0049917200Y0060543000D01*
Y0059600300D01*
X0050134700Y0059382800D01*
X0051154600D01*
X0051325000Y0059553200D01*
Y0062000000D01*
G01X0055450000Y0053492200D02*
X0050407800D01*
G01X0048475000Y0052000000D02*
X0048942200D01*
X0050407800Y0053465600D01*
Y0053492200D01*
G01X0046800000Y0056000000D02*
Y0058507800D01*
X0047675000Y0059382800D01*
Y0060000000D01*
G01X0051000000Y0056000000D02*
X0050407800D01*
Y0053492200D01*
G01X0047525000Y0052000000D02*
Y0052465700D01*
G01D02*
X0048407800Y0053348500D01*
Y0055200000D01*
X0049000000D01*
G01X0048041400Y0058387500D02*
X0048152100Y0058276800D01*
Y0056255700D01*
X0048407800Y0056000000D01*
X0049000000D01*
G01X0047197600Y0060871000D02*
X0046917200Y0060590600D01*
Y0060000000D01*
X0046325000D01*
G01X0048473100Y0062000000D02*
X0047675000D01*
G01X0048825000D02*
X0048473100D01*
G01X0050675000Y0060000000D02*
Y0060617200D01*
X0050175000Y0061117200D01*
Y0062000000D01*
G01X0052675000D02*
X0052082800D01*
Y0062370100D01*
X0051835700Y0062617200D01*
X0050792200D01*
X0050175000Y0062000000D01*
G01X0047675000Y0060000000D02*
Y0060617200D01*
X0047736500Y0060678700D01*
Y0061105700D01*
X0047474100Y0061368100D01*
X0047181700D01*
X0047082800Y0061467000D01*
Y0062542500D01*
X0047157500Y0062617200D01*
X0049335700D01*
X0049582800Y0062370100D01*
Y0062000000D01*
X0050175000D01*
G01X0058500000Y0015635000D02*
X0057572200D01*
X0054675000Y0018532200D01*
Y0021000000D01*
G01X0052469300Y0021044900D02*
X0052687900D01*
X0052732800Y0021000000D01*
X0053325000D01*
G01D02*
X0053917200D01*
Y0021370100D01*
X0054164300Y0021617200D01*
X0055189600D01*
X0055732800Y0021074000D01*
Y0021000000D01*
X0056325000D01*
G01X0068992200Y0021350400D02*
X0068150400Y0022192200D01*
X0057739300D01*
X0056917200Y0021370100D01*
Y0021000000D01*
X0056325000D01*
G01X0058042200Y0051665400D02*
X0056884600Y0050507800D01*
X0054599800D01*
X0053442200Y0051665400D01*
Y0052000000D01*
X0052550000D01*
G01X0053467200Y0056940700D02*
X0055175000Y0058648500D01*
Y0062000000D01*
G01X0060050000Y0052000000D02*
X0059157800D01*
Y0052334600D01*
X0058000200Y0053492200D01*
X0055450000D01*
G01D02*
Y0052000000D01*
G01X0057150000D02*
X0058042200D01*
Y0051665400D01*
G01X0053825000Y0062000000D02*
Y0061122200D01*
G01X0055175000Y0062000000D02*
X0056325000D01*
G01X0057675000D02*
X0057082800D01*
Y0062370100D01*
X0056835700Y0062617200D01*
X0053292200D01*
X0052675000Y0062000000D01*
G01X0060325000Y0009000000D02*
X0060917200D01*
Y0008629900D01*
X0061193500Y0008353600D01*
X0077161400D01*
X0078807800Y0010000000D01*
X0080000000D01*
G01X0058964000Y0014365000D02*
X0061675000Y0011654000D01*
Y0009000000D01*
G01X0062264200Y0013019400D02*
X0062432200D01*
X0062507800Y0013095000D01*
G01X0058500000Y0015635000D02*
X0059746400D01*
G01X0059735800Y0016931700D02*
X0059518900D01*
X0059492200Y0016905000D01*
X0058500000D01*
G01X0062507800Y0013095000D02*
Y0014365000D01*
X0063500000D01*
G01Y0013095000D02*
X0062507800D01*
G01X0057675000Y0021000000D02*
Y0020382800D01*
X0057507800Y0020215600D01*
Y0016905000D01*
X0058500000D01*
G01X0066000000Y0021000000D02*
Y0019807800D01*
X0064870700D01*
X0059427900Y0014365000D01*
X0058964000D01*
G01D02*
X0058500000D01*
G01X0064384100Y0051346100D02*
X0064038000Y0051000000D01*
X0062475000D01*
G01X0061525000D02*
X0061057800D01*
Y0050471000D01*
G01X0065000000Y0049000000D02*
X0063807800D01*
X0062336800Y0050471000D01*
X0061057800D01*
G01X0058042200Y0051665400D02*
X0059236600Y0050471000D01*
X0061057800D01*
G01X0061525000Y0051000000D02*
X0061992200D01*
Y0051350400D01*
X0063174600Y0052532800D01*
X0063525000D01*
Y0053000000D01*
G01X0060050000Y0052000000D02*
X0060942200D01*
X0062432300Y0053490100D01*
X0063868100D01*
X0064007800Y0053350400D01*
G01X0060463200Y0061138200D02*
X0061325000Y0062000000D01*
G01X0062656800Y0060891400D02*
X0062675000Y0060909600D01*
Y0062000000D01*
G01X0065675000D02*
X0065082800D01*
Y0062370100D01*
X0064835700Y0062617200D01*
X0060792200D01*
X0060175000Y0062000000D01*
G01D02*
X0059582800D01*
Y0062370100D01*
X0059335700Y0062617200D01*
X0058292200D01*
X0057675000Y0062000000D01*
G01X0068621100Y0010000000D02*
X0068325000D01*
G01X0074325000D02*
X0073732800D01*
X0073115600Y0009382800D01*
X0069164300D01*
X0068917200Y0009629900D01*
Y0010000000D01*
X0068621100D01*
G01D02*
Y0013288300D01*
X0070582800Y0015250000D01*
X0071000000D01*
G01X0063500000Y0014365000D02*
X0064492200D01*
Y0015635000D01*
G01D02*
X0066776100D01*
X0068483200Y0017342100D01*
X0070400100D01*
G01X0063500000Y0015635000D02*
X0064492200D01*
G01X0063500000Y0016905000D02*
X0064663600D01*
X0068758600Y0021000000D01*
G01D02*
X0068525000D01*
G01X0066675000Y0052000000D02*
X0066378900D01*
Y0051923000D01*
X0065802000Y0051346100D01*
X0064384100D01*
G01D02*
Y0052857300D01*
X0064241400Y0053000000D01*
G01X0065000000Y0049000000D02*
Y0050192200D01*
X0065973300D01*
X0069225000Y0053444000D01*
G01X0066724800Y0054392000D02*
X0067132800Y0054800000D01*
X0067750000D01*
G01X0066658900Y0056000000D02*
X0067750000D01*
G01X0065719800Y0056106900D02*
X0066109900Y0056497000D01*
X0066864800D01*
X0066961800Y0056400000D01*
X0067750000D01*
G01Y0055200000D02*
X0066777500D01*
X0065325000Y0053747500D01*
Y0052000000D01*
G01X0064325000Y0062000000D02*
Y0060007800D01*
X0067132800Y0057200000D01*
X0067750000D01*
G01X0066825000Y0062000000D02*
X0068367200Y0060457800D01*
Y0056800000D01*
X0067750000D01*
G01X0064241400Y0053000000D02*
X0064475000D01*
G01X0064241400D02*
X0064007800D01*
Y0053350400D01*
G01X0067750000Y0055600000D02*
X0069632800D01*
G01Y0055965200D02*
X0068734300Y0056863700D01*
Y0060823500D01*
X0068175000Y0061382800D01*
Y0062000000D01*
G01X0064007800Y0053350400D02*
X0066160400Y0055503000D01*
X0066864800D01*
X0066961800Y0055600000D01*
X0067750000D01*
G01X0068175000Y0062000000D02*
X0067582800D01*
Y0062370100D01*
X0067335700Y0062617200D01*
X0066292200D01*
X0065675000Y0062000000D01*
G01X0073175000D02*
X0072582800D01*
Y0062370100D01*
X0072335700Y0062617200D01*
X0068792200D01*
X0068175000Y0062000000D01*
G01X0069675000Y0010000000D02*
Y0013342200D01*
X0070582800Y0014250000D01*
X0071000000D01*
G01X0073000000D02*
X0072582800D01*
X0071916400Y0014916400D01*
G01X0071417200Y0014750000D02*
Y0014250000D01*
X0071000000D01*
G01Y0014750000D02*
X0071417200D01*
G01X0072000000Y0015000000D02*
X0071916400Y0014916400D01*
G01X0071417200Y0014750000D02*
X0071583600Y0014916400D01*
X0071916400D01*
G01X0072000000Y0015000000D02*
Y0015742200D01*
X0070400100Y0017342100D01*
G01X0070409300Y0020532800D02*
X0070400100Y0020523600D01*
Y0017342100D01*
G01X0073417200Y0015750000D02*
X0073512600Y0015845400D01*
X0077745000D01*
X0078157800Y0015432600D01*
Y0015000000D01*
X0078850000D01*
G01X0073000000Y0015750000D02*
X0073417200D01*
G01D02*
Y0015250000D01*
G01X0073000000D02*
X0073417200D01*
G01D02*
Y0014751700D01*
X0073415500Y0014750000D01*
X0073000000D01*
G01X0071000000Y0015750000D02*
Y0015250000D01*
G01X0074475000Y0021000000D02*
X0074007800D01*
Y0020532800D01*
G01X0069475000Y0021000000D02*
X0069942200D01*
X0070409300Y0020532900D01*
Y0020532800D01*
G01X0074007800D02*
X0070409300D01*
G01X0085190000Y0015000000D02*
X0079657200Y0020532800D01*
X0074007800D01*
G01X0073057800Y0021000000D02*
X0073525000D01*
G01X0068758600D02*
X0068992200D01*
Y0021350400D01*
G01X0097325000Y0021000000D02*
X0096732800D01*
X0096265600Y0021467200D01*
X0073525000D01*
X0073057800Y0021000000D01*
G01D02*
X0072590600Y0021467200D01*
X0069109000D01*
X0068992200Y0021350400D01*
G01X0074000000Y0049000000D02*
X0075435700D01*
G01X0071525000Y0052000000D02*
X0071992200D01*
Y0051649600D01*
X0072156800Y0051485000D01*
X0072801900D01*
X0075237600Y0053920700D01*
Y0057676200D01*
X0075067900Y0057845900D01*
X0071513100D01*
X0070867200Y0057200000D01*
X0070250000D01*
G01X0069225000Y0053444000D02*
X0071482100Y0051186900D01*
X0072914800D01*
X0075493300Y0053765400D01*
Y0057809600D01*
X0075131600Y0058171300D01*
X0069632800D01*
G01X0070250000Y0055200000D02*
X0069632800D01*
Y0055600000D01*
G01X0070250000Y0056000000D02*
X0069743000D01*
X0069708200Y0055965200D01*
X0069632800D01*
G01Y0055600000D02*
Y0055965200D01*
G01X0070250000Y0054800000D02*
X0069632800D01*
Y0053851700D01*
X0069225000Y0053444000D01*
G01X0070250000Y0056400000D02*
X0069632800D01*
Y0058171300D01*
G01X0074000000Y0056000000D02*
X0071267200D01*
G01X0070250000Y0055600000D02*
X0070865700D01*
G01D02*
X0070867200D01*
X0071267200Y0056000000D01*
G01X0070865700Y0055600000D02*
X0072475000Y0053990700D01*
Y0052000000D01*
G01X0071267200Y0056000000D02*
Y0056400000D01*
X0070867200Y0056800000D01*
X0070250000D01*
G01X0071412600Y0060040600D02*
X0071267200Y0060186000D01*
Y0062000000D01*
G01X0074325000D02*
Y0061122200D01*
G01X0071267200Y0062000000D02*
X0071825000D01*
G01X0070675000D02*
X0071267200D01*
G01X0073175000D02*
Y0061382800D01*
X0073949700Y0060608100D01*
X0077348700D01*
X0077582800Y0060842200D01*
G01X0069325000Y0062000000D02*
Y0058479100D01*
X0069632800Y0058171300D01*
G01X0074325000Y0062000000D02*
X0074917200D01*
Y0062370100D01*
X0075191100Y0062644000D01*
X0078647400D01*
X0079057800Y0062233600D01*
G01X0075675000Y0010000000D02*
X0076512000D01*
G01X0080000000D02*
Y0014542200D01*
X0079542200Y0015000000D01*
X0078850000D01*
G01X0074847400Y0014734800D02*
X0075112600Y0015000000D01*
X0077150000D01*
G01X0078000000Y0049000000D02*
X0079192200D01*
X0079742200Y0049550000D01*
G01D02*
X0078000000Y0051292200D01*
Y0056000000D01*
G01X0082000000Y0049550000D02*
X0079742200D01*
G01X0082000000Y0057050000D02*
X0080242200D01*
X0079192200Y0056000000D01*
X0078000000D01*
G01X0075536400Y0061135700D02*
Y0061244200D01*
X0075675000Y0061382800D01*
Y0062000000D01*
G01D02*
X0076825000D01*
G01X0078175000D02*
X0077582800D01*
Y0060842200D01*
G01X0082000000D02*
X0077582800D01*
G01X0079525000Y0062000000D02*
X0079057800D01*
Y0062233600D01*
G01X0099000000Y0061000000D02*
X0097807800D01*
X0096340600Y0062467200D01*
X0079291400D01*
X0079057800Y0062233600D01*
G01X0085190000Y0015000000D02*
X0091190000Y0009000000D01*
X0095000000D01*
G01X0083700000Y0049550000D02*
X0086000000D01*
G01X0082000000D02*
X0083700000D01*
G01X0082000000Y0052450000D02*
X0086000000D01*
G01Y0058050000D02*
Y0057157800D01*
X0085892200Y0057050000D01*
X0082000000D01*
G01X0081185000Y0061757200D02*
X0080942200Y0062000000D01*
X0080475000D01*
G01X0080823100Y0058812200D02*
X0080953100Y0058942200D01*
X0093885000D01*
X0094985000Y0057842200D01*
Y0056635000D01*
G01X0082000000Y0060842200D02*
Y0059950000D01*
G01X0086000000Y0060950000D02*
X0082107800D01*
X0082000000Y0060842200D01*
G01X0087426100Y0055365000D02*
X0089015000D01*
G01X0086000000Y0058050000D02*
X0087492200D01*
Y0057455600D01*
X0087677800Y0057270000D01*
X0088570000D01*
G01X0095000000Y0009000000D02*
X0096192200D01*
X0101175000Y0013982800D01*
X0101500000D01*
Y0014525000D01*
G01X0099000000Y0061000000D02*
Y0057407800D01*
X0096322200Y0054730000D01*
X0095430000D01*
G01X0098675000Y0018114400D02*
Y0015717200D01*
X0098500000Y0015542200D01*
Y0015000000D01*
G01X0101500000Y0015475000D02*
X0102192200D01*
X0102590100Y0015872900D01*
X0103580000D01*
X0104082800Y0015370100D01*
Y0015000000D01*
X0104675000D01*
G01X0098675000Y0021000000D02*
Y0018114400D01*
G01X0103000000Y0020325000D02*
X0101707800Y0021617200D01*
X0098164300D01*
X0097917200Y0021370100D01*
Y0021000000D01*
X0097325000D01*
G01X0103325000Y0015227900D02*
Y0015000000D01*
G01Y0015511300D02*
Y0015227900D01*
G01X0103000000Y0021675000D02*
Y0021082800D01*
X0103370100D01*
X0105267200Y0019185700D01*
Y0014495400D01*
X0105083800Y0014312000D01*
X0104240900D01*
X0103325000Y0015227900D01*
M02*
