G04 ================== begin FILE IDENTIFICATION RECORD ==================*
G04 Layout Name:  pcie_gen3_x4_nvme_adapter_reva_stage3_route_revk_interview_digital_complete.brd*
G04 Film Name:    L2_GND1*
G04 File Format:  Gerber RS274X*
G04 File Origin:  Cadence Allegro 25.1-S040*
G04 Origin Date:  Sun Jul 26 23:07:17 2026*
G04 *
G04 Layer:  ETCH/GND1*
G04 Layer:  BOARD GEOMETRY/DESIGN_OUTLINE*
G04 *
G04 Offset:    (0.0000 0.0000)*
G04 Mirror:    No*
G04 Mode:      Positive*
G04 Rotation:  0*
G04 FullContactRelief:  No*
G04 UndefLineWidth:     0.0000*
G04 ================== end FILE IDENTIFICATION RECORD ====================*
%FSAX46Y46*MOMM*%
%IR0*IPPOS*OFA0.00000B0.00000*MIA0B0*SFA1.00000B1.00000*%
%ADD10C,.127*%
%ADD11C,.7044*%
%ADD13C,.6544*%
%ADD12C,2.0544*%
G75*
%LPD*%
G75*
G36*
G01X0118900000Y0062900000D02*
Y0000100000D01*
X0003100000D01*
Y0062900000D01*
X0118900000D01*
G37*
%LPC*%
G75*
G36*
G01X0039878900Y0039958100D02*
G02X0039723800Y0040250000I0000197130J0000291900D01*
G02X0040428200I0000352200J0D01*
G02X0040275800Y0039959900I-0000352309J0D01*
G03X0040276500Y0039792100I0000057608J-0000083661D01*
G02X0040431600Y0039500200I-0000197130J-0000291900D01*
G02X0040270700Y0039204500I-0000352167J0D01*
G03X0040266700Y0039036500I0000055123J-0000085360D01*
G02Y0038463500I-0000204734J-0000286500D01*
G03X0040270600Y0038295600I0000059134J-0000082622D01*
G02X0040431300Y0038000000I-0000191521J-0000295600D01*
G02X0040271300Y0037704900I-0000352138J0D01*
G03X0040267900Y0037537000I0000055483J-0000085108D01*
G02X0040415900Y0037250000I-0000204274J-0000287000D01*
G02X0040314800Y0037003100I-0000352176J0000000059D01*
G03X0040352400Y0036836400I0000072468J-0000071245D01*
G02X0040583800Y0036505600I-0000120749J-0000330800D01*
G02X0040411300Y0036202700I-0000352187J0D01*
G03X0040402900Y0036033500I0000051863J-0000087383D01*
G02X0040546200Y0035750000I-0000208784J-0000283500D01*
G02X0040374300Y0035447500I-0000352111J0D01*
G03X0040364500Y0035279500I0000052003J-0000087319D01*
G02X0040502500Y0035000000I-0000214169J-0000279562D01*
G02X0040310800Y0034686500I-0000352194J0D01*
G03X0040291300Y0034518600I0000046266J-0000090456D01*
G02X0040415700Y0034250000I-0000227776J-0000268600D01*
G02X0039711300I-0000352200J0D01*
G02X0039903000Y0034563500I0000352194J0D01*
G03X0039922500Y0034731400I-0000046266J0000090456D01*
G02X0039798100Y0035000000I0000227776J0000268600D01*
G02X0039970000Y0035302500I0000352111J0D01*
G03X0039979800Y0035470500I-0000052003J0000087319D01*
G02X0039841800Y0035750000I0000214169J0000279562D01*
G02X0040014300Y0036052900I0000352187J0D01*
G03X0040022700Y0036222100I-0000051863J0000087383D01*
G02X0039879400Y0036505600I0000208784J0000283500D01*
G02X0039980500Y0036752500I0000352176J-0000000059D01*
G03X0039942900Y0036919200I-0000072468J0000071245D01*
G02X0039711500Y0037250000I0000120749J0000330800D01*
G02X0039871500Y0037545100I0000352138J0D01*
G03X0039874900Y0037713000I-0000055483J0000085108D01*
G02X0039726900Y0038000000I0000204274J0000287000D01*
G02X0039874300Y0038286500I0000352134J0D01*
G03X0039870400Y0038454400I-0000059134J0000082622D01*
G02X0039709700Y0038750000I0000191521J0000295600D01*
G02X0039870600Y0039045700I0000352167J0D01*
G03X0039874600Y0039213700I-0000055123J0000085360D01*
G02X0039727200Y0039500200I0000204734J0000286500D01*
G02X0039879600Y0039790300I0000352309J0D01*
G03X0039878900Y0039958100I-0000057608J0000083661D01*
G37*
G36*
G01X0040083400Y0032983300D02*
G02X0040060100Y0032982500I-0000023728J0000351385D01*
G02X0040412300Y0033334700I0J0000352200D01*
G02X0040397100Y0033232300I-0000352207J-0000000047D01*
G03X0040501000Y0033101400I0000097219J-0000029518D01*
G02X0040524300Y0033102200I0000023728J-0000351385D01*
G02X0040876500Y0032750000I0J-0000352200D01*
G02X0040873000Y0032700600I-0000352191J0000000129D01*
G03X0041001500Y0032588600I0000100594J-0000014302D01*
G02X0041098400Y0032602200I0000096927J-0000338596D01*
G02X0040746200Y0032250000I0J-0000352200D01*
G02X0040749700Y0032299400I0000352191J-0000000129D01*
G03X0040621200Y0032411400I-0000100594J0000014302D01*
G02X0040524300Y0032397800I-0000096927J0000338596D01*
G02X0040172100Y0032750000I0J0000352200D01*
G02X0040187300Y0032852400I0000352207J0000000047D01*
G03X0040083400Y0032983300I-0000097219J0000029518D01*
G37*
G36*
G01X0042728500Y0027908900D02*
G02X0042640700Y0027897800I-0000087726J0000341109D01*
G02X0042992900Y0028250000I0J0000352200D01*
G02X0042989800Y0028203000I-0000352224J-0000000370D01*
G03X0043115800Y0028091100I0000100668J-0000013535D01*
G02X0043203600Y0028102200I0000087726J-0000341109D01*
G02X0042851400Y0027750000I0J-0000352200D01*
G02X0042854500Y0027797000I0000352224J0000000370D01*
G03X0042728500Y0027908900I-0000100668J0000013535D01*
G37*
G36*
G01X0052234800Y0015951000D02*
G02X0052081600Y0016241600I0000199015J0000290600D01*
G02X0052786000I0000352200J0D01*
G02X0052640700Y0015956600I-0000352158J0D01*
G03X0052643000Y0015790600I0000059731J-0000082188D01*
G02X0052796200Y0015500000I-0000199015J-0000290600D01*
G02X0052091800I-0000352200J0D01*
G02X0052237100Y0015785000I0000352158J0D01*
G03X0052234800Y0015951000I-0000059731J0000082188D01*
G37*
G36*
G01X0024899500Y0006077900D02*
G02X0025251100Y0006410000I0000351600J-0000020072D01*
G02Y0005705600I0J-0000352200D01*
G02X0025072800Y0005754100I0000000053J0000352186D01*
G03X0024919900Y0005672200I-0000051447J-0000087629D01*
G02X0024568300Y0005340100I-0000351600J0000020072D01*
G02Y0006044500I0J0000352200D01*
G02X0024746600Y0005996000I-0000000053J-0000352186D01*
G03X0024899500Y0006077900I0000051447J0000087629D01*
G37*
G36*
G01X0022043300Y0005504400D02*
G02X0021744100Y0005338000I-0000299200J0000185792D01*
G02Y0006042400I0J0000352200D01*
G02X0022041900Y0005878300I0J-0000352266D01*
G03X0022214100Y0005879000I0000085881J0000054264D01*
G02X0022513300Y0006045400I0000299200J-0000185792D01*
G02Y0005341000I0J-0000352200D01*
G02X0022215500Y0005505100I0J0000352266D01*
G03X0022043300Y0005504400I-0000085881J-0000054264D01*
G37*
G36*
G01X0014766900Y0005290700D02*
G02X0014500000Y0005152800I-0000266900J0000189337D01*
G02Y0005807200I0J0000327200D01*
G02X0014784800Y0005641100I0J-0000327213D01*
G03X0014958000Y0005635300I0000088374J0000050087D01*
G02X0015252200Y0005793800I0000294200J-0000193790D01*
G02X0015538700Y0005646400I0J-0000352134D01*
G03X0015704100I0000082700J0000059062D01*
G02X0015990600Y0005793800I0000286500J-0000204734D01*
G02Y0005089400I0J-0000352200D01*
G02X0015704100Y0005236800I0J0000352134D01*
G03X0015538700I-0000082700J-0000059062D01*
G02X0015252200Y0005089400I-0000286500J0000204734D01*
G02X0014939900Y0005278900I0J0000352088D01*
G03X0014766900Y0005290700I-0000090106J-0000046966D01*
G37*
G54D11*
X0099000000Y0061000000D03*
X0080823100Y0058812200D03*
X0081185000Y0061757200D03*
X0075536400Y0061135700D03*
X0074325000Y0061122200D03*
X0071412600Y0060040600D03*
X0062656800Y0060891400D03*
X0060463200Y0061138200D03*
X0053825000Y0061122200D03*
X0048041400Y0058387500D03*
X0047197600Y0060871000D03*
X0087426100Y0055365000D03*
X0065719800Y0056106900D03*
X0066658900Y0056000000D03*
X0066724800Y0054392000D03*
X0053467200Y0056940700D03*
X0052276600Y0056024600D03*
X0051411700Y0052103700D03*
X0051846500Y0055200000D03*
X0049872200Y0055830800D03*
X0040664100Y0056000000D03*
X0075435700Y0049000000D03*
X0035560000Y0039513200D03*
X0031928200Y0040000000D03*
X0031933200Y0035178100D03*
X0042111500Y0029750000D03*
X0041611500Y0031250000D03*
X0040068300Y0030750000D03*
X0040067200Y0029250000D03*
X0098675000Y0018114400D03*
X0052469300Y0021044900D03*
X0074847400Y0014734800D03*
X0059735800Y0016931700D03*
X0059746400Y0015635000D03*
X0052628800Y0014708300D03*
X0049456400Y0014353100D03*
X0049315000Y0013181300D03*
X0076512000Y0010000000D03*
X0048808600D03*
X0032281400Y0009770700D03*
X0030854200Y0008421500D03*
X0020000000Y0007537500D03*
X0008515800Y0007246600D03*
X0035273600Y0005433800D03*
X0032491500Y0005690600D03*
X0029506900Y0005689600D03*
X0034252800Y0005434600D03*
X0030578600Y0005702000D03*
X0028536600Y0005692400D03*
X0025933800Y0005590100D03*
X0026757300Y0005637700D03*
X0020531600Y0005956900D03*
X0019527300Y0005702200D03*
X0017737300Y0005659800D03*
X0013032100Y0005436100D03*
X0007307900Y0005445800D03*
X0031427800Y0042700000D03*
X0083700000Y0049550000D03*
G54D13*
X0012000000Y0005480000D03*
G54D12*
X0092810000Y0015000000D03*
X0087730000D03*
X0090270000D03*
X0085190000D03*
%LPD*%
G75*
G54D10*
G01X0085190000Y0015000000D02*
X0086268000D01*
G01X0084112000D02*
X0085190000D01*
G01D02*
Y0016078000D01*
G01Y0013922000D02*
Y0015000000D01*
M02*
