G04 ================== begin FILE IDENTIFICATION RECORD ==================*
G04 Layout Name:  pcie_gen3_x4_nvme_adapter_reva_stage3_route_revk_interview_digital_complete.brd*
G04 Film Name:    SM_TOP*
G04 File Format:  Gerber RS274X*
G04 File Origin:  Cadence Allegro 25.1-S040*
G04 Origin Date:  Sun Jul 26 23:07:17 2026*
G04 *
G04 Layer:  BOARD GEOMETRY/SOLDERMASK_TOP*
G04 Layer:  PACKAGE GEOMETRY/SOLDERMASK_TOP*
G04 Layer:  PIN/SOLDERMASK_TOP*
G04 Layer:  VIA CLASS/SOLDERMASK_TOP*
G04 Layer:  BOARD GEOMETRY/DESIGN_OUTLINE*
G04 *
G04 Offset:    (0.0000 0.0000)*
G04 Mirror:    No*
G04 Mode:      Positive*
G04 Rotation:  0*
G04 FullContactRelief:  No*
G04 UndefLineWidth:     0.0000*
G04 ================== end FILE IDENTIFICATION RECORD ====================*
%FSAX46Y46*MOMM*%
%IR0*IPPOS*OFA0.00000B0.00000*MIA0B0*SFA1.00000B1.00000*%
%ADD16R,1.1X.4*%
%ADD28R,1.1X.8*%
%ADD10R,.8X5.1*%
%ADD11R,2.85X.4*%
%ADD26R,1.5X.86*%
%ADD19R,1.7X.75*%
%ADD15R,.65X.65*%
%ADD24R,1.1X1.4*%
%ADD23R,2.1X3.3*%
%ADD14R,2.3X2.5*%
%ADD25R,2.7X1.5*%
%ADD18R,1.5X2.7*%
%ADD22R,.55X.4*%
%ADD27R,2.39X2.13*%
%ADD17R,.9X.35*%
%ADD21R,1.2X1.2*%
%ADD13R,2.1X2.1*%
%ADD29R,.95X.9*%
%ADD20R,.95X.35*%
%ADD12R,.9X.95*%
%LPD*%
G75*
G54D10*
X0005500000Y0002500000D03*
X0006500000D03*
X0007500000D03*
X0008500000D03*
X0009500000D03*
X0010500000D03*
X0011500000D03*
X0014500000D03*
X0015500000D03*
X0016500000D03*
X0017500000D03*
X0012500000D03*
X0013500000D03*
X0018500000D03*
X0019500000D03*
X0020500000D03*
X0021500000D03*
X0022500000D03*
X0023500000D03*
X0024500000D03*
X0025500000D03*
X0026500000D03*
X0027500000D03*
X0028500000D03*
X0029500000D03*
X0030500000D03*
X0031500000D03*
X0032500000D03*
X0033500000D03*
X0034500000D03*
X0035500000D03*
X0036500000D03*
G54D20*
X0067750000Y0054800000D03*
Y0055200000D03*
Y0055600000D03*
Y0056000000D03*
Y0056400000D03*
Y0056800000D03*
Y0057200000D03*
X0070250000D03*
Y0056800000D03*
Y0056400000D03*
Y0056000000D03*
Y0055600000D03*
Y0055200000D03*
Y0054800000D03*
G54D11*
X0033750000Y0027000000D03*
Y0027500000D03*
Y0028000000D03*
Y0028500000D03*
Y0029000000D03*
Y0029500000D03*
Y0030000000D03*
Y0030500000D03*
Y0031000000D03*
Y0031500000D03*
Y0032000000D03*
Y0032500000D03*
Y0033000000D03*
Y0033500000D03*
Y0034000000D03*
Y0034500000D03*
Y0035000000D03*
Y0035500000D03*
Y0036000000D03*
Y0036500000D03*
Y0037000000D03*
Y0037500000D03*
Y0038000000D03*
Y0038500000D03*
Y0039000000D03*
Y0039500000D03*
Y0040000000D03*
Y0040500000D03*
Y0041000000D03*
Y0043500000D03*
Y0044000000D03*
Y0044500000D03*
Y0045000000D03*
X0038250000Y0026750000D03*
Y0027250000D03*
Y0027750000D03*
Y0028250000D03*
Y0028750000D03*
Y0029250000D03*
Y0029750000D03*
Y0030250000D03*
Y0030750000D03*
Y0031250000D03*
Y0031750000D03*
Y0032250000D03*
Y0032750000D03*
Y0033250000D03*
Y0033750000D03*
Y0034250000D03*
Y0034750000D03*
Y0035250000D03*
Y0035750000D03*
Y0036250000D03*
Y0036750000D03*
Y0037250000D03*
Y0037750000D03*
Y0038250000D03*
Y0038750000D03*
Y0039250000D03*
Y0039750000D03*
Y0040250000D03*
Y0040750000D03*
Y0043250000D03*
Y0043750000D03*
Y0044250000D03*
Y0044750000D03*
Y0045250000D03*
G54D12*
X0045325000Y0010000000D03*
X0046325000Y0062000000D03*
Y0060000000D03*
X0046675000Y0010000000D03*
X0051325000Y0062000000D03*
X0050175000D03*
X0048825000D03*
X0047675000D03*
X0050675000Y0060000000D03*
X0049325000D03*
X0047675000D03*
X0057675000Y0021000000D03*
X0056325000D03*
X0054675000D03*
X0053325000D03*
X0057675000Y0062000000D03*
X0056325000D03*
X0055175000D03*
X0053825000D03*
X0052675000D03*
X0061675000Y0009000000D03*
X0060325000D03*
X0062675000Y0062000000D03*
X0061325000D03*
X0060175000D03*
X0058825000D03*
X0068325000Y0010000000D03*
X0066675000Y0052000000D03*
X0065325000D03*
X0068175000Y0062000000D03*
X0066825000D03*
X0065675000D03*
X0064325000D03*
X0074325000Y0010000000D03*
X0069675000D03*
X0074325000Y0062000000D03*
X0073175000D03*
X0071825000D03*
X0070675000D03*
X0069325000D03*
X0075675000Y0010000000D03*
X0078175000Y0062000000D03*
X0076825000D03*
X0075675000D03*
X0097325000Y0021000000D03*
X0098675000D03*
X0104675000Y0015000000D03*
X0103325000D03*
G54D21*
X0072000000D03*
G54D13*
X0046000000Y0020000000D03*
X0043000000Y0061500000D03*
X0066000000Y0021000000D03*
X0065000000Y0049000000D03*
X0074000000D03*
X0080000000Y0010000000D03*
X0078000000Y0049000000D03*
X0095000000Y0009000000D03*
X0099000000Y0061000000D03*
G54D22*
X0073000000Y0015750000D03*
Y0015250000D03*
Y0014750000D03*
Y0014250000D03*
X0071000000D03*
Y0014750000D03*
Y0015250000D03*
Y0015750000D03*
G54D14*
X0046800000Y0056000000D03*
X0042200000D03*
G54D23*
X0074000000D03*
X0078000000D03*
G54D24*
X0078850000Y0015000000D03*
X0077150000D03*
G54D15*
X0050475000Y0010000000D03*
X0049525000D03*
X0048475000Y0052000000D03*
X0047525000D03*
X0062475000Y0051000000D03*
X0061525000D03*
X0068525000Y0021000000D03*
X0064475000Y0053000000D03*
X0063525000D03*
X0074475000Y0021000000D03*
X0073525000D03*
X0069475000D03*
X0072475000Y0052000000D03*
X0071525000D03*
X0079525000Y0062000000D03*
X0080475000D03*
G54D25*
X0086000000Y0049550000D03*
X0082000000D03*
X0086000000Y0058050000D03*
X0082000000Y0057050000D03*
X0086000000Y0052450000D03*
X0082000000D03*
X0086000000Y0060950000D03*
X0082000000Y0059950000D03*
G54D16*
X0051500000Y0016000000D03*
Y0015500000D03*
Y0015000000D03*
Y0014500000D03*
Y0014000000D03*
X0048500000D03*
Y0014500000D03*
Y0015000000D03*
Y0015500000D03*
Y0016000000D03*
G54D17*
X0051000000Y0056800000D03*
Y0056400000D03*
Y0056000000D03*
Y0055600000D03*
Y0055200000D03*
X0049000000D03*
Y0055600000D03*
Y0056000000D03*
Y0056400000D03*
Y0056800000D03*
G54D26*
X0088570000Y0057270000D03*
X0095430000Y0054730000D03*
G54D27*
X0089015000Y0055365000D03*
X0094985000Y0056635000D03*
G54D18*
X0057150000Y0052000000D03*
X0055450000D03*
X0052550000D03*
X0060050000D03*
G54D19*
X0063500000Y0016905000D03*
Y0015635000D03*
Y0014365000D03*
Y0013095000D03*
X0058500000D03*
Y0014365000D03*
Y0015635000D03*
Y0016905000D03*
G54D28*
X0101500000Y0015475000D03*
Y0014525000D03*
X0098500000Y0015000000D03*
G54D29*
X0103000000Y0021675000D03*
Y0020325000D03*
M02*
